<svg xmlns="http://www.w3.org/2000/svg" width="232.869" height="232.464" viewBox="0 0 232.869 232.464"><path d="M599.116,320.617l3.4.634,2.45-2.443a.75.75,0,0,1,1.274.434l.449,3.43,3.082,1.573a.75.75,0,0,1-.019,1.344l-3.124,1.488-.546,3.418a.749.749,0,0,1-1.284.4l-2.38-2.511-3.417.538a.75.75,0,0,1-.775-1.1l1.65-3.041-1.567-3.085A.751.751,0,0,1,599.116,320.617Z" transform="translate(-566.566 -267.768)" fill="#fff"/><path d="M618.106,316.586l-9.443-10.1a.252.252,0,0,1,.019-.4l1.368-1.279a.253.253,0,0,1,.4.007l9.443,10.1a.273.273,0,0,1-.014.41l-1.368,1.279A.256.256,0,0,1,618.106,316.586Z" transform="translate(-566.566 -267.768)" fill="#fff"/><path d="M615.1,303.067l-1.109-1.42a.252.252,0,0,1,.054-.4l5.217-4.074a.252.252,0,0,1,.4.043l1.11,1.42a.255.255,0,0,1-.05.406l-1.643,1.283,7.223,9.247a.252.252,0,0,1-.044.4l-1.48,1.157a.258.258,0,0,1-.409-.049l-7.222-9.247-1.642,1.282a.284.284,0,0,1-.215.067A.28.28,0,0,1,615.1,303.067Z" transform="translate(-566.566 -267.768)" fill="#fff"/><path d="M629.634,307.012l-4.777-13.331a.283.283,0,0,1,.131-.372l2.119-1.319a.284.284,0,0,1,.391.046l9.852,10.174a.443.443,0,0,1,.054.069q.115.188-.1.321l-1.627,1.013a.274.274,0,0,1-.374-.067l-1.821-1.962-2.716,1.69.971,2.492a.273.273,0,0,1-.105.365L630,307.147q-.216.135-.318-.029A.451.451,0,0,1,629.634,307.012Zm.412-5.744L632,300.052l-4.3-4.727Z" transform="translate(-566.566 -267.768)" fill="#fff"/><path d="M635.05,287.879a.252.252,0,0,1,.147-.376l1.7-.779a.252.252,0,0,1,.381.135l4.882,10.679,3.892-1.779a.253.253,0,0,1,.381.134l.749,1.639a.257.257,0,0,1-.143.385l-5.859,2.679a.257.257,0,0,1-.385-.144Z" transform="translate(-566.566 -267.768)" fill="#fff"/><path d="M650.5,296.3l-4.609-13.035a.253.253,0,0,1,.18-.362l1.764-.624a.254.254,0,0,1,.368.169l4.608,13.034a.293.293,0,0,1,0,.226.284.284,0,0,1-.173.144l-1.764.624A.256.256,0,0,1,650.5,296.3Z" transform="translate(-566.566 -267.768)" fill="#fff"/><path d="M656.374,294.232l-.345-14.157a.282.282,0,0,1,.241-.311l2.426-.586a.283.283,0,0,1,.357.167l6.155,12.754a.412.412,0,0,1,.03.083c.034.142-.032.234-.2.273l-1.862.45a.273.273,0,0,1-.334-.181l-1.112-2.435-3.11.751.139,2.67a.272.272,0,0,1-.214.314l-1.871.451c-.165.041-.263,0-.293-.127A.389.389,0,0,1,656.374,294.232Zm2.2-5.322,2.238-.541-2.6-5.838Z" transform="translate(-566.566 -267.768)" fill="#fff"/><path d="M668.84,291.531l-1.483-13.745a.252.252,0,0,1,.258-.311l1.773-.191a.317.317,0,0,1,.349.192l3.539,7.318.1-.012-.815-7.558a.252.252,0,0,1,.258-.311l1.861-.2a.252.252,0,0,1,.318.249l1.484,13.745a.271.271,0,0,1-.257.319l-1.775.192a.309.309,0,0,1-.339-.2l-3.569-7.342-.087.01.819,7.584a.256.256,0,0,1-.257.32l-1.861.2a.285.285,0,0,1-.218-.057A.28.28,0,0,1,668.84,291.531Z" transform="translate(-566.566 -267.768)" fill="#fff"/><path d="M687.038,290.517l1.177-13.625a.318.318,0,0,1,.391-.327l1.724.149a.319.319,0,0,1,.329.39l-.481,5.551,3.246-5.409a.439.439,0,0,1,.436-.228l1.882.164a.287.287,0,0,1,.26.141.33.33,0,0,1-.043.31l-3.588,6,2.622,7.522a.365.365,0,0,1,.038.18.2.2,0,0,1-.045.111.309.309,0,0,1-.3.1l-1.9-.165a.4.4,0,0,1-.388-.307l-1.8-5.519-.775,1.213-.343,3.966a.319.319,0,0,1-.391.328l-1.724-.149A.318.318,0,0,1,687.038,290.517Z" transform="translate(-566.566 -267.768)" fill="#fff"/><path d="M698.735,291.92l2.521-13.593a.252.252,0,0,1,.336-.224l1.841.342a.251.251,0,0,1,.233.329l-2.521,13.593a.285.285,0,0,1-.116.193.288.288,0,0,1-.222.04l-1.841-.341A.256.256,0,0,1,698.735,291.92Z" transform="translate(-566.566 -267.768)" fill="#fff"/><path d="M707.84,281.483l.487-1.734a.252.252,0,0,1,.355-.193l6.373,1.786a.252.252,0,0,1,.2.349l-.486,1.735a.256.256,0,0,1-.357.2l-2.006-.562-3.166,11.3a.253.253,0,0,1-.35.2l-1.81-.507a.257.257,0,0,1-.2-.358l3.166-11.3-2.006-.562a.282.282,0,0,1-.181-.133A.292.292,0,0,1,707.84,281.483Z" transform="translate(-566.566 -267.768)" fill="#fff"/><path d="M715.674,294l3.488-8.525a2.6,2.6,0,0,1,1.349-1.537,2.643,2.643,0,0,1,2.046.125l1.868.763a2.328,2.328,0,0,1,1.415,3.381l-.735,1.8a.252.252,0,0,1-.375.151l-1.667-.682a.252.252,0,0,1-.162-.37l.545-1.334a.638.638,0,0,0-.4-.941l-.865-.354a.637.637,0,0,0-.942.393l-3.109,7.6a.638.638,0,0,0,.4.94l.865.355a.638.638,0,0,0,.942-.394l.546-1.334a.256.256,0,0,1,.378-.158l1.668.682a.284.284,0,0,1,.165.153.292.292,0,0,1-.007.226l-.734,1.8a2.329,2.329,0,0,1-3.379,1.42l-1.869-.764a2.651,2.651,0,0,1-1.546-1.345A2.605,2.605,0,0,1,715.674,294Z" transform="translate(-566.566 -267.768)" fill="#fff"/><path d="M725.083,300.593l6.733-12.076a.26.26,0,0,1,.4-.1l1.62.9a.252.252,0,0,1,.116.387l-2.791,5.006,2.012,1.121,2.791-5a.252.252,0,0,1,.39-.105l1.62.9a.26.26,0,0,1,.131.4L731.378,304.1a.264.264,0,0,1-.41.1l-1.62-.9a.288.288,0,0,1-.145-.172.282.282,0,0,1,.034-.223l2.785-5-2.011-1.121-2.786,5a.27.27,0,0,1-.395.112l-1.619-.9A.264.264,0,0,1,725.083,300.593Z" transform="translate(-566.566 -267.768)" fill="#fff"/><path d="M734.749,306.257l8.126-11.185a.277.277,0,0,1,.182-.123.259.259,0,0,1,.2.056l5.361,3.894a.254.254,0,0,1,.071.4l-1.059,1.457a.266.266,0,0,1-.417.078l-3.653-2.654-2.119,2.915,2.794,2.029a.261.261,0,0,1,.059.413l-1.049,1.443a.265.265,0,0,1-.416.079l-2.793-2.03-2.138,2.944,3.654,2.654a.33.33,0,0,1,.149.184.31.31,0,0,1-.079.215l-1.059,1.457a.256.256,0,0,1-.405.065l-5.362-3.9a.26.26,0,0,1-.113-.18A.293.293,0,0,1,734.749,306.257Z" transform="translate(-566.566 -267.768)" fill="#fff"/><path d="M743.679,313.031l9.428-10.112a.252.252,0,0,1,.4-.008l1.306,1.217a.315.315,0,0,1,.082.389l-3.222,7.462.078.073,5.184-5.561a.252.252,0,0,1,.4-.008l1.369,1.277a.252.252,0,0,1,.021.4L749.3,318.275a.283.283,0,0,1-.2.1.287.287,0,0,1-.208-.086l-1.3-1.217a.309.309,0,0,1-.069-.389l3.219-7.5-.065-.061-5.2,5.58a.256.256,0,0,1-.41.015l-1.369-1.277a.272.272,0,0,1-.015-.41Z" transform="translate(-566.566 -267.768)" fill="#fff"/><path d="M769.612,324.972l-1.684,3.022,1.535,3.1a.75.75,0,0,1-.817,1.069l-3.395-.667-2.473,2.421a.751.751,0,0,1-1.268-.446l-.416-3.437-3.066-1.605a.75.75,0,0,1,.032-1.344l3.14-1.456.578-3.41a.751.751,0,0,1,1.289-.387l2.357,2.534,3.423-.5A.752.752,0,0,1,769.612,324.972Z" transform="translate(-566.566 -267.768)" fill="#fff"/><path d="M768.759,365.655c-1.539.04-3.056.077-4.543.111q.348,1.557.636,3.134a26.06,26.06,0,0,1,4.458-.457C769.143,367.508,768.956,366.579,768.759,365.655Z" transform="translate(-566.566 -267.768)" fill="#fff"/><path d="M601.812,404.106q-1.191,4.71-1.867,9.259a87.656,87.656,0,0,0,12.5,23.309c1.2-.772,2.421-1.619,3.674-2.564A83.171,83.171,0,0,1,601.812,404.106Z" transform="translate(-566.566 -267.768)" fill="#fff"/><path d="M619.587,329.611a83.271,83.271,0,0,1,122.829-3.921,11.472,11.472,0,0,1,1.367-.391,19.78,19.78,0,0,1,3.969-.5,87.894,87.894,0,0,0-139.828,13.166A47.815,47.815,0,0,1,619.587,329.611Z" transform="translate(-566.566 -267.768)" fill="#fff"/><path d="M752.267,430.171a83.3,83.3,0,0,1-120.994,19.4q-2.106,1.29-4.214,2.379A87.9,87.9,0,0,0,758.28,429.03,40.654,40.654,0,0,1,752.267,430.171Z" transform="translate(-566.566 -267.768)" fill="#fff"/><path d="M767.946,387.275c0-.156,0-.306-.011-.452q-.156.168-.324.354c-.5.555-1.01,1.139-1.521,1.746-.153,2.611-.414,5.195-.8,7.738.367-.789.717-1.585,1.032-2.4A20.846,20.846,0,0,0,767.946,387.275Z" transform="translate(-566.566 -267.768)" fill="#fff"/><path d="M756.816,337.917c-.539,1.269-1.158,2.713-1.837,4.288a83.017,83.017,0,0,1,4.836,9.689q2.227.006,4.82.008a87.581,87.581,0,0,0-7.487-14.774C757.044,337.377,756.935,337.636,756.816,337.917Z" transform="translate(-566.566 -267.768)" fill="#fff"/><path d="M614.971,463.339l2.158-2.742a1.229,1.229,0,0,1,.776-.469,1.336,1.336,0,0,1,.9.156l.021-.027a1.35,1.35,0,0,1-.367-.838,1.218,1.218,0,0,1,.272-.86l1.936-2.459A2.6,2.6,0,0,1,622.391,455a2.656,2.656,0,0,1,1.934.684l2.562,2.017a.319.319,0,0,1,.06.506l-1.023,1.3a.319.319,0,0,1-.507.058l-2.171-1.709a.639.639,0,0,0-1.015.118l-1.256,1.595a.7.7,0,0,0-.176.522.734.734,0,0,0,.31.478l1.316,1.037.446-.566a.32.32,0,0,1,.508-.059l1.357,1.069a.317.317,0,0,1,.061.506l-.445.568.584.459a.315.315,0,0,1,.056.5l-1.028,1.305a.311.311,0,0,1-.5.058l-.584-.461-3.61,4.586a.32.32,0,0,1-.507.059l-3.346-2.635a2.648,2.648,0,0,1-1.12-1.721A2.591,2.591,0,0,1,614.971,463.339Zm2.182,1.078a.638.638,0,0,0,.122,1.014l1.317,1.037,2.365-3-1.317-1.038a.639.639,0,0,0-1.014.119Z" transform="translate(-566.566 -267.768)" fill="#fff"/><path d="M634.534,476.526l.816-1.7a.256.256,0,0,1,.387-.137l1.688.809a.257.257,0,0,1,.137.387l-.6,1.254a.637.637,0,0,0,.338.961l.778.371a.637.637,0,0,0,.961-.338l1.037-2.164-3.241-3.1a.645.645,0,0,1-.154-.815l1.834-3.827A2.33,2.33,0,0,1,641.973,467l1.822.873a2.316,2.316,0,0,1,1.218,3.459l-.824,1.721a.253.253,0,0,1-.383.128l-1.688-.81a.253.253,0,0,1-.14-.379l.608-1.268a.637.637,0,0,0-.34-.961l-.776-.373a.657.657,0,0,0-.961.339l-1.071,2.236,3.252,3.117a.679.679,0,0,1,.139.808l-1.8,3.749a2.315,2.315,0,0,1-3.458,1.216l-1.824-.873a2.33,2.33,0,0,1-1.216-3.459Z" transform="translate(-566.566 -267.768)" fill="#fff"/><path d="M647.477,482.21l2.822-8.768a2.319,2.319,0,0,1,3.266-1.672l1.927.621a2.316,2.316,0,0,1,1.676,3.262l-2.823,8.77a2.319,2.319,0,0,1-3.266,1.671l-1.926-.62a2.317,2.317,0,0,1-1.676-3.264Zm2.4.3a.638.638,0,0,0,.468.908l.99.318a.637.637,0,0,0,.909-.463l2.549-7.916a.637.637,0,0,0-.468-.906l-.991-.32a.639.639,0,0,0-.909.465Z" transform="translate(-566.566 -267.768)" fill="#fff"/><path d="M661.068,486.091l1.606-9.069a2.605,2.605,0,0,1,.994-1.789,2.654,2.654,0,0,1,2.026-.31l1.988.352a2.33,2.33,0,0,1,2.1,3l-.34,1.912a.252.252,0,0,1-.334.227l-1.774-.315a.252.252,0,0,1-.237-.328l.252-1.418a.639.639,0,0,0-.587-.836l-.921-.164a.639.639,0,0,0-.838.584l-1.431,8.084a.639.639,0,0,0,.587.836l.921.162a.637.637,0,0,0,.837-.584l.252-1.419a.256.256,0,0,1,.335-.235l1.775.314a.285.285,0,0,1,.194.116.279.279,0,0,1,.041.221l-.339,1.913a2.33,2.33,0,0,1-3,2.1l-1.988-.353a2.652,2.652,0,0,1-1.8-.987A2.609,2.609,0,0,1,661.068,486.091Z" transform="translate(-566.566 -267.768)" fill="#fff"/><path d="M674.222,490.279l.946-13.792a.254.254,0,0,1,.308-.262l1.868.128a.254.254,0,0,1,.27.3l-.946,13.792a.282.282,0,0,1-.092.2.276.276,0,0,1-.216.065l-1.868-.127A.257.257,0,0,1,674.222,490.279Z" transform="translate(-566.566 -267.768)" fill="#fff"/><path d="M683.207,490.688l2.33-13.968a.282.282,0,0,1,.295-.261l2.493-.118a.284.284,0,0,1,.319.23l3.641,13.687a.538.538,0,0,1,.013.087c.006.146-.075.224-.245.232l-1.913.09a.273.273,0,0,1-.294-.24l-.633-2.6-3.195.152-.368,2.649a.271.271,0,0,1-.269.267l-1.922.092c-.171.008-.257-.053-.264-.181A.4.4,0,0,1,683.207,490.688Zm3.16-4.814,2.3-.107-1.448-6.224Z" transform="translate(-566.566 -267.768)" fill="#fff"/><path d="M697.025,475.79a.253.253,0,0,1,.226-.335l1.832-.382a.253.253,0,0,1,.343.215l2.4,11.5,4.19-.876a.253.253,0,0,1,.341.218l.368,1.763a.256.256,0,0,1-.225.343l-6.306,1.317a.257.257,0,0,1-.344-.225Z" transform="translate(-566.566 -267.768)" fill="#fff"/><path d="M721.285,483.485l-5.41-12.722a.275.275,0,0,1-.012-.22.278.278,0,0,1,.153-.146l6.1-2.593a.255.255,0,0,1,.378.146l.7,1.658a.266.266,0,0,1-.149.4l-4.156,1.767,1.41,3.317,3.177-1.352a.261.261,0,0,1,.385.16l.7,1.643a.265.265,0,0,1-.148.4l-3.177,1.351,1.424,3.35,4.156-1.768a.326.326,0,0,1,.235-.033.3.3,0,0,1,.143.179l.7,1.657a.258.258,0,0,1-.153.381l-6.1,2.592a.252.252,0,0,1-.213,0A.291.291,0,0,1,721.285,483.485Z" transform="translate(-566.566 -267.768)" fill="#fff"/><path d="M733.834,477.7l-4.572-13.4a.283.283,0,0,1,.137-.369l2.139-1.285a.282.282,0,0,1,.39.051l9.694,10.324a.451.451,0,0,1,.054.07c.074.127.04.232-.105.32l-1.643.987a.271.271,0,0,1-.372-.073l-1.791-1.989-2.742,1.648.932,2.5a.274.274,0,0,1-.109.365l-1.649.991c-.147.088-.252.076-.319-.034A.435.435,0,0,1,733.834,477.7Zm.5-5.736,1.974-1.188-4.225-4.791Z" transform="translate(-566.566 -267.768)" fill="#fff"/><path d="M738.239,460.727l-1.112-1.419a.254.254,0,0,1,.056-.4l5.21-4.08a.253.253,0,0,1,.4.043l1.111,1.418a.256.256,0,0,1-.049.406l-1.641,1.285,7.237,9.239a.254.254,0,0,1-.044.4l-1.48,1.156a.254.254,0,0,1-.407-.047l-7.235-9.238-1.641,1.286a.286.286,0,0,1-.214.068A.289.289,0,0,1,738.239,460.727Z" transform="translate(-566.566 -267.768)" fill="#fff"/><path d="M755.737,461.759l-9.581-9.967a.253.253,0,0,1,.014-.4l1.349-1.3a.251.251,0,0,1,.4,0l9.583,9.966a.278.278,0,0,1,.088.206.282.282,0,0,1-.1.205l-1.349,1.3A.258.258,0,0,1,755.737,461.759Z" transform="translate(-566.566 -267.768)" fill="#fff"/><path d="M762.042,455.4l-10.6-8.872a.253.253,0,0,1-.03-.4l1.145-1.367a.315.315,0,0,1,.384-.1l7.625,2.818.067-.081-5.83-4.881a.251.251,0,0,1-.029-.4l1.2-1.434a.25.25,0,0,1,.4-.043l10.6,8.873a.271.271,0,0,1,.036.408l-1.144,1.369a.312.312,0,0,1-.385.089l-7.663-2.813-.056.068,5.851,4.9a.259.259,0,0,1,.036.41l-1.2,1.435a.272.272,0,0,1-.409.036Z" transform="translate(-566.566 -267.768)" fill="#fff"/><path d="M769.335,442.327l-7.818-4.869a2.316,2.316,0,0,1-.83-3.572l1.259-2.022a2.331,2.331,0,0,1,3.572-.83l1.589.988a.256.256,0,0,1,.086.4l-.952,1.529a.255.255,0,0,1-.394.1l-1.163-.726a.637.637,0,0,0-.993.232l-.683,1.095a.637.637,0,0,0,.231.994l6.967,4.34a.639.639,0,0,0,.994-.231l.682-1.1a.637.637,0,0,0-.23-.992l-2.052-1.278-.492.79a.252.252,0,0,1-.393.1l-1.529-.951a.257.257,0,0,1-.093-.4l1.6-2.566a.256.256,0,0,1,.4-.094l4.245,2.644a2.329,2.329,0,0,1,.829,3.572l-1.258,2.022a2.315,2.315,0,0,1-3.572.83Z" transform="translate(-566.566 -267.768)" fill="#fff"/><path d="M572.278,400.975A113.367,113.367,0,0,1,571,384a111.831,111.831,0,0,1,219.017-31.812c2.4.021,3.9.039,4.619.06a116.258,116.258,0,0,0-224.6,60.054C570.55,408.78,571.3,404.992,572.278,400.975Z" transform="translate(-566.566 -267.768)" fill="#fff"/><path d="M792.992,365a113.172,113.172,0,0,1,1.6,19,111.8,111.8,0,0,1-190.847,79.052q-2.742-2.742-5.263-5.639a38.084,38.084,0,0,1-5.5-.827c-.418-.1-.821-.211-1.225-.322a116.252,116.252,0,0,0,205.612-91.87A26.1,26.1,0,0,1,792.992,365Z" transform="translate(-566.566 -267.768)" fill="#fff"/><path d="M682.2,366.861a113.562,113.562,0,0,1-6.051,17.441,203.039,203.039,0,0,1-11.488,22.724q-10.782,18.037-23.882,29.827t-26.1,15.217a51.236,51.236,0,0,1-10.38,1.108h-1.108a40.255,40.255,0,0,1-9.17-.907q-18.542-4.434-20.255-26.5-.1-1.512-.1-3.124,0-9.169,3.275-22.068a123.656,123.656,0,0,1,9.724-25.6,144.91,144.91,0,0,1,17.584-26.653q9.522-11.236,17.987-15.065a10.34,10.34,0,0,0,4.837-4.031q6.55-8.868,20.759-13.1a41.978,41.978,0,0,1,10.782-1.31,35.34,35.34,0,0,1,10.178,1.31q10.178,3.225,13.5,12.7,2.014,6.147,2.217,16.123v1.008c0,2.085-.086,4.135-.21,6.168l-.372.012-16.283-.076h-.061l-.06,0c-.489.011-.944.025-1.409.038.092-1.678.155-3.357.155-5.036q0-1.512-.1-3.124-.3-13.4-4.233-18.037-1.814-2.52-3.224-2.822h-.5a9.435,9.435,0,0,0-3.93,1.31,31.022,31.022,0,0,0-8.515,6.752,40.69,40.69,0,0,0-6.8,9.976q-5.139,10.682-5.139,18.844a15.451,15.451,0,0,0,.957,6.146,6.577,6.577,0,0,0,3.174,3.225q2.217,1.209,2.217,2.217,0,.6-1.108,1.612t-6.449,1.109q-12.7-.2-15.015-12.6l-.4-2.52-3.829,6.45q-18.039,31.137-18.743,57.438v1.713q0,12.495,5.542,17.332,2.317,2.52,4.232,2.721h.5a11.848,11.848,0,0,0,5.038-1.612q8.263-4.031,18.038-13.5a131.6,131.6,0,0,0,17.635-21.162q14.02-20.791,18.515-41.676h2.086l9.564-.093c.838.063,1.785.093,2.887.093Zm116.23-9.666a15.511,15.511,0,0,0-3.679-.5c-.674-.038-5.294-.074-9.867-.107q-2.215-.083-5.344-.145-5.039-.1-13.1-.1-8.868,0-13.756-.051t-6.7-.252q-1.713-.1-1.713-.3v-.1q.2-.4,1.612-3.678t3.427-7.81q2.014-4.635,3.426-7.96a23.384,23.384,0,0,0,1.411-3.729q0-.806-1.26-1.663a10.373,10.373,0,0,0-3.073-1.36,8.833,8.833,0,0,0-1.915-.2,15.459,15.459,0,0,0-3.174.4,6.859,6.859,0,0,0-3.275,1.714,51.762,51.762,0,0,0-4.384,6.55q-3.174,5.24-7.1,12.6l-3.023,5.643-3.97.136q-3.92-.062-5.5-.237-1.713-.1-1.713-.3v-.1q.2-.4,1.613-3.678t3.426-7.81q2.014-4.635,3.426-7.96a23.384,23.384,0,0,0,1.411-3.729q0-.806-1.26-1.663a10.373,10.373,0,0,0-3.073-1.36,8.833,8.833,0,0,0-1.915-.2,15.467,15.467,0,0,0-3.174.4,6.859,6.859,0,0,0-3.275,1.714,51.876,51.876,0,0,0-4.384,6.55q-3.174,5.24-7.1,12.6l-3.023,5.643-11.79.4c-.327.007-.628.017-.944.026l-.519.014c-.418.012-.828.024-1.226.038h0l-16.314-.076a83.567,83.567,0,0,0-12.493.907q-3.527.705-3.527,2.216,0,.3.655.907a5.7,5.7,0,0,0,1.562,1.008,8.783,8.783,0,0,0,2.166.6,24.952,24.952,0,0,0,3.678.2h6.549l9.718-.1.022,0c.292.024.613.043.959.058.134.006.27.011.413.015l.381.01c.3.006.618.011.958.011h6.551l10.279-.1-1.613,3.426q-3.123,6.852-7.2,16.375t-7.457,17.837q-3.375,8.313-4.484,11.538-5.139,15.216-5.341,22.572v.3q0,7.054,4.837,8.667a13.623,13.623,0,0,0,4.333.705,29.51,29.51,0,0,0,3.426-.3,4.652,4.652,0,0,0,3.427-1.915q.2-.5.3-.806a.776.776,0,0,0,.1-.3c0-.135-.034-.2-.1-.2a1.728,1.728,0,0,1-.1-.7,37.984,37.984,0,0,1,.957-6.1q.958-4.586,3.074-11.437,4.334-14.31,18.34-48.269l4.647-11.286h1.1l10.278-.1L722.4,365.71q-3.123,6.852-7.2,16.375t-7.457,17.837q-3.375,8.313-4.484,11.538-5.139,15.216-5.341,22.572v.3q0,7.054,4.837,8.667a13.623,13.623,0,0,0,4.333.705,29.51,29.51,0,0,0,3.426-.3,4.65,4.65,0,0,0,3.426-1.915q.2-.5.3-.806a.77.77,0,0,0,.1-.3c0-.135-.033-.2-.1-.2a1.728,1.728,0,0,1-.1-.7,37.984,37.984,0,0,1,.957-6.1q.957-4.586,3.074-11.437,4.334-14.31,18.34-48.269l4.938-11.992h5.844q2.721-.1,9.221-.2t13.856-.3c5.282-.157,9.306-.3,12.105-.441,2.4-.038,9.011-.077,9.606-.114q4.031-.252,5.139-.856a9.591,9.591,0,0,0,1.562-.857q.656-.453.655-.756Q799.434,357.548,798.427,357.2ZM787.9,383.043a10.708,10.708,0,0,1,.4,3.123,32.17,32.17,0,0,1-1.714,9.07,50.591,50.591,0,0,1-26.6,28.618A36.187,36.187,0,0,1,749,425.971a16.445,16.445,0,0,1-1.814.1,18.974,18.974,0,0,1-9.069-2.317,13.053,13.053,0,0,1-6.651-11.287,29.226,29.226,0,0,1,1.159-6.247,43.969,43.969,0,0,1,2.469-6.853,60.818,60.818,0,0,1,11.437-15.417,39.6,39.6,0,0,1,16.275-9.977,22.147,22.147,0,0,1,6.852-1.108,27,27,0,0,1,11.79,2.922,15.087,15.087,0,0,1,3.88,3.174A12.273,12.273,0,0,1,787.9,383.043Zm-15.519,4.232a9.071,9.071,0,0,0-1.31-5.039,5.675,5.675,0,0,0-1.159-1.209,1.988,1.988,0,0,0-.957-.5q-1.311,0-4.636,3.678a90.9,90.9,0,0,0-6.8,8.616,76.958,76.958,0,0,0-5.592,9.07q-3.629,7.356-3.628,11.79a8.567,8.567,0,0,0,.4,2.72l.806,2.52,3.225-1.713a39.619,39.619,0,0,0,3.426-2.268,37.411,37.411,0,0,0,3.628-2.972,45.723,45.723,0,0,0,10.681-16.124A24.924,24.924,0,0,0,772.382,387.275Z" transform="translate(-566.566 -267.768)" fill="#fff"/></svg>